<svg xmlns="http://www.w3.org/2000/svg">
  <symbol id="apple-pay" viewBox="0 0 512 211">
    <path d="M93.552 27.103c-6 7.1-15.602 12.702-25.203 11.901c-1.2-9.6 3.5-19.802 9.001-26.103C83.35 5.601 93.852.4 102.353 0c1 10.001-2.9 19.802-8.8 27.103m8.701 13.802c-13.902-.8-25.803 7.9-32.404 7.9c-6.7 0-16.802-7.5-27.803-7.3c-14.301.2-27.603 8.3-34.904 21.202c-15.002 25.803-3.9 64.008 10.601 85.01c7.101 10.401 15.602 21.802 26.803 21.402c10.602-.4 14.802-6.9 27.604-6.9c12.901 0 16.602 6.9 27.803 6.7c11.601-.2 18.902-10.4 26.003-20.802c8.1-11.801 11.401-23.303 11.601-23.903c-.2-.2-22.402-8.7-22.602-34.304c-.2-21.402 17.502-31.603 18.302-32.203c-10.002-14.802-25.603-16.402-31.004-16.802m80.31-29.004V167.82h24.202v-53.306h33.504c30.603 0 52.106-21.002 52.106-51.406c0-30.403-21.103-51.206-51.306-51.206zm24.202 20.403h27.903c21.003 0 33.004 11.201 33.004 30.903s-12.001 31.004-33.104 31.004h-27.803zM336.58 169.019c15.202 0 29.303-7.7 35.704-19.902h.5v18.702h22.403V90.21c0-22.502-18.002-37.004-45.706-37.004c-25.703 0-44.705 14.702-45.405 34.904h21.803c1.8-9.601 10.7-15.902 22.902-15.902c14.802 0 23.103 6.901 23.103 19.603v8.6l-30.204 1.8c-28.103 1.7-43.304 13.202-43.304 33.205c0 20.202 15.701 33.603 38.204 33.603m6.5-18.502c-12.9 0-21.102-6.2-21.102-15.702c0-9.8 7.901-15.501 23.003-16.401l26.903-1.7v8.8c0 14.602-12.401 25.003-28.803 25.003m82.01 59.707c23.603 0 34.704-9 44.405-36.304L512 54.706h-24.603l-28.503 92.11h-.5l-28.503-92.11h-25.303l41.004 113.513l-2.2 6.901c-3.7 11.701-9.701 16.202-20.402 16.202c-1.9 0-5.6-.2-7.101-.4v18.702c1.4.4 7.4.6 9.201.6"/>
  </symbol>
  <symbol id="google-pay" viewBox="0 0 512 204">
     <path fill="#5F6368" d="M362.927 55.057c14.075 0 24.952 3.839 33.27 11.517c8.317 7.677 12.155 17.914 12.155 30.71v61.42h-17.914V144.63h-.64c-7.677 11.517-18.554 17.275-31.35 17.275c-10.877 0-20.474-3.2-28.151-9.597c-7.038-6.398-11.517-15.355-11.517-24.952q0-15.356 11.517-24.953c7.677-6.398 18.554-8.957 31.35-8.957c11.516 0 20.474 1.92 27.511 6.398v-4.478c0-5.972-2.229-11.943-6.688-15.834l-.99-.801c-5.118-4.479-11.516-7.038-18.553-7.038q-16.315 0-24.953 13.436L321.34 74.89c10.236-13.436 23.672-19.834 41.587-19.834M272.715 11.55c11.48 0 22.39 3.995 31.113 11.445l1.517 1.35c8.957 7.678 13.435 19.195 13.435 31.351s-4.478 23.033-13.435 31.35s-19.834 12.796-32.63 12.796l-30.71-.64v59.502H222.81V11.55zm92.77 97.25q-11.516 0-19.193 5.758q-7.678 4.798-7.678 13.435c0 5.119 2.56 9.597 6.398 12.157c4.479 3.199 9.597 5.118 14.716 5.118c7.165 0 14.331-2.787 19.936-7.84l1.177-1.117c6.398-5.758 9.597-12.796 9.597-20.474c-5.758-4.478-14.076-7.038-24.952-7.038m-91.49-79.336h-31.99V80.65h31.99c7.037 0 14.075-2.559 18.554-7.677c10.236-9.597 10.236-25.592.64-35.19l-.64-.64c-5.119-5.118-11.517-8.317-18.555-7.677M512 58.256l-63.34 145.235h-19.194l23.672-50.544l-41.587-94.051h20.474l30.07 72.297h.64l29.431-72.297H512z"/><path fill="#4285F4" d="M165.868 86.407c0-5.758-.64-11.516-1.28-17.274H84.615v32.63h45.425c-1.919 10.236-7.677 19.833-16.634 25.592v21.113h27.511c15.995-14.715 24.952-36.469 24.952-62.06"/><path fill="#34A853" d="M84.614 168.942c23.032 0 42.226-7.678 56.302-20.474l-27.511-21.113c-7.678 5.118-17.275 8.317-28.791 8.317c-21.754 0-40.948-14.715-47.346-35.189H9.118v21.753c14.715 28.791 43.506 46.706 75.496 46.706"/><path fill="#FBBC04" d="M37.268 100.483c-3.838-10.237-3.838-21.753 0-32.63V46.1H9.118c-12.157 23.673-12.157 51.824 0 76.136z"/><path fill="#EA4335" d="M84.614 33.304c12.156 0 23.672 4.479 32.63 12.796l24.312-24.312C126.2 7.712 105.727-.605 85.253.034c-31.99 0-61.42 17.915-75.496 46.706l28.151 21.753c5.758-20.474 24.952-35.189 46.706-35.189"/>
  </symbol>
  <symbol id="mastercard" viewBox="0 0 256 199">
    <path d="M46.54 198.011V184.84c0-5.05-3.074-8.342-8.343-8.342c-2.634 0-5.488.878-7.464 3.732c-1.536-2.415-3.731-3.732-7.024-3.732c-2.196 0-4.39.658-6.147 3.073v-2.634h-4.61v21.074h4.61v-11.635c0-3.731 1.976-5.488 5.05-5.488c3.072 0 4.61 1.976 4.61 5.488v11.635h4.61v-11.635c0-3.731 2.194-5.488 5.048-5.488c3.074 0 4.61 1.976 4.61 5.488v11.635zm68.271-21.074h-7.463v-6.366h-4.61v6.366h-4.171v4.17h4.17v9.66c0 4.83 1.976 7.683 7.245 7.683c1.976 0 4.17-.658 5.708-1.536l-1.318-3.952c-1.317.878-2.853 1.098-3.951 1.098c-2.195 0-3.073-1.317-3.073-3.513v-9.44h7.463zm39.076-.44c-2.634 0-4.39 1.318-5.488 3.074v-2.634h-4.61v21.074h4.61v-11.854c0-3.512 1.536-5.488 4.39-5.488c.878 0 1.976.22 2.854.439l1.317-4.39c-.878-.22-2.195-.22-3.073-.22m-59.052 2.196c-2.196-1.537-5.269-2.195-8.562-2.195c-5.268 0-8.78 2.634-8.78 6.805c0 3.513 2.634 5.488 7.244 6.147l2.195.22c2.415.438 3.732 1.097 3.732 2.195c0 1.536-1.756 2.634-4.83 2.634s-5.488-1.098-7.025-2.195l-2.195 3.512c2.415 1.756 5.708 2.634 9 2.634c6.147 0 9.66-2.853 9.66-6.805c0-3.732-2.854-5.708-7.245-6.366l-2.195-.22c-1.976-.22-3.512-.658-3.512-1.975c0-1.537 1.536-2.415 3.951-2.415c2.635 0 5.269 1.097 6.586 1.756zm122.495-2.195c-2.635 0-4.391 1.317-5.489 3.073v-2.634h-4.61v21.074h4.61v-11.854c0-3.512 1.537-5.488 4.39-5.488c.879 0 1.977.22 2.855.439l1.317-4.39c-.878-.22-2.195-.22-3.073-.22m-58.833 10.976c0 6.366 4.39 10.976 11.196 10.976c3.073 0 5.268-.658 7.463-2.414l-2.195-3.732c-1.756 1.317-3.512 1.975-5.488 1.975c-3.732 0-6.366-2.634-6.366-6.805c0-3.951 2.634-6.586 6.366-6.805c1.976 0 3.732.658 5.488 1.976l2.195-3.732c-2.195-1.757-4.39-2.415-7.463-2.415c-6.806 0-11.196 4.61-11.196 10.976m42.588 0v-10.537h-4.61v2.634c-1.537-1.975-3.732-3.073-6.586-3.073c-5.927 0-10.537 4.61-10.537 10.976s4.61 10.976 10.537 10.976c3.073 0 5.269-1.097 6.586-3.073v2.634h4.61zm-16.904 0c0-3.732 2.415-6.805 6.366-6.805c3.732 0 6.367 2.854 6.367 6.805c0 3.732-2.635 6.805-6.367 6.805c-3.951-.22-6.366-3.073-6.366-6.805m-55.1-10.976c-6.147 0-10.538 4.39-10.538 10.976s4.39 10.976 10.757 10.976c3.073 0 6.147-.878 8.562-2.853l-2.196-3.293c-1.756 1.317-3.951 2.195-6.146 2.195c-2.854 0-5.708-1.317-6.367-5.05h15.587v-1.755c.22-6.806-3.732-11.196-9.66-11.196m0 3.951c2.853 0 4.83 1.757 5.268 5.05h-10.976c.439-2.854 2.415-5.05 5.708-5.05m114.372 7.025v-18.879h-4.61v10.976c-1.537-1.975-3.732-3.073-6.586-3.073c-5.927 0-10.537 4.61-10.537 10.976s4.61 10.976 10.537 10.976c3.074 0 5.269-1.097 6.586-3.073v2.634h4.61zm-16.903 0c0-3.732 2.414-6.805 6.366-6.805c3.732 0 6.366 2.854 6.366 6.805c0 3.732-2.634 6.805-6.366 6.805c-3.952-.22-6.366-3.073-6.366-6.805m-154.107 0v-10.537h-4.61v2.634c-1.537-1.975-3.732-3.073-6.586-3.073c-5.927 0-10.537 4.61-10.537 10.976s4.61 10.976 10.537 10.976c3.074 0 5.269-1.097 6.586-3.073v2.634h4.61zm-17.123 0c0-3.732 2.415-6.805 6.366-6.805c3.732 0 6.367 2.854 6.367 6.805c0 3.732-2.635 6.805-6.367 6.805c-3.951-.22-6.366-3.073-6.366-6.805"/><path fill="#FF5F00" d="M93.298 16.903h69.15v124.251h-69.15z"/><path fill="#EB001B" d="M97.689 79.029c0-25.245 11.854-47.637 30.074-62.126C114.373 6.366 97.47 0 79.03 0C35.343 0 0 35.343 0 79.029s35.343 79.029 79.029 79.029c18.44 0 35.343-6.366 48.734-16.904c-18.22-14.269-30.074-36.88-30.074-62.125"/><path fill="#F79E1B" d="M255.746 79.029c0 43.685-35.343 79.029-79.029 79.029c-18.44 0-35.343-6.366-48.734-16.904c18.44-14.488 30.075-36.88 30.075-62.125s-11.855-47.637-30.075-62.126C141.373 6.366 158.277 0 176.717 0c43.686 0 79.03 35.563 79.03 79.029"/>
  </symbol>
</svg>
