<svg xmlns="http://www.w3.org/2000/svg">
  <symbol id="lucide-bike" viewBox="0 0 24 24">
    <g fill="none" stroke="currentColor" stroke-linecap="round" stroke-linejoin="round" stroke-width="2">
      <circle cx="18.5" cy="17.5" r="3.5" />
      <circle cx="5.5" cy="17.5" r="3.5" />
      <circle cx="15" cy="5" r="1" />
      <path d="M12 17.5V14l-3-3l4-3l2 3h2" />
    </g>
  </symbol>
  <symbol id="lucide-walk" viewBox="0 0 18 18">
    <g fill="none" stroke="currentColor" stroke-linecap="round" stroke-linejoin="round" stroke-width="2">
      <path d="m5.25 15.75 2.25-3m4.5 3-1.5-3-2.25-2.25L9 6m0-3a.75.75 0 1 0 1.5 0A.75.75 0 0 0 9 3Z" />
      <path d="M4.5 9 6 6.75 9 6l2.25 2.25L13.5 9" />
    </g>
  </symbol>
  <symbol id="lucide-bus" viewBox="0 0 24 24">
    <g fill="none" stroke="currentColor" stroke-linecap="round" stroke-linejoin="round" stroke-width="2">
      <path
        d="M8 6v6m7-6v6M2 12h19.6M18 18h3s.5-1.7.8-2.8c.1-.4.2-.8.2-1.2s-.1-.8-.2-1.2l-1.4-5C20.1 6.8 19.1 6 18 6H4a2 2 0 0 0-2 2v10h3" />
      <circle cx="7" cy="18" r="2" />
      <path d="M9 18h5" />
      <circle cx="16" cy="18" r="2" />
    </g>
  </symbol>
  <symbol id="lucide-car-front" viewBox="0 0 24 24">
    <g fill="none" stroke="currentColor" stroke-linecap="round" stroke-linejoin="round" stroke-width="2">
      <path
        d="m21 8l-2 2l-1.5-3.7A2 2 0 0 0 15.646 5H8.4a2 2 0 0 0-1.903 1.257L5 10L3 8m4 6h.01M17 14h.01" />
      <rect width="18" height="8" x="3" y="10" rx="2" />
      <path d="M5 18v2m14-2v2" />
    </g>
  </symbol>
  <symbol id="lucide-ban" viewBox="0 0 24 24">
    <g fill="none" stroke="currentColor" stroke-linecap="round" stroke-linejoin="round" stroke-width="2">
      <circle cx="12" cy="12" r="10" />
      <path d="m4.9 4.9l14.2 14.2" />
    </g>
  </symbol>
</svg>
