<svg xmlns="http://www.w3.org/2000/svg">
  <symbol id="lucide-bike" viewBox="0 0 24 24">
    <g fill="none" stroke="currentColor" stroke-linecap="round" stroke-linejoin="round" stroke-width="2">
      <circle cx="18.5" cy="17.5" r="3.5" />
      <circle cx="5.5" cy="17.5" r="3.5" />
      <circle cx="15" cy="5" r="1" />
      <path d="M12 17.5V14l-3-3l4-3l2 3h2" />
    </g>
  </symbol>
  <symbol id="lucide-walk" viewBox="0 0 18 18">
    <g fill="none" stroke="currentColor" stroke-linecap="round" stroke-linejoin="round" stroke-width="2">
      <path d="m5.25 15.75 2.25-3m4.5 3-1.5-3-2.25-2.25L9 6m0-3a.75.75 0 1 0 1.5 0A.75.75 0 0 0 9 3Z" />
      <path d="M4.5 9 6 6.75 9 6l2.25 2.25L13.5 9" />
    </g>
  </symbol>
  <symbol id="lucide-bus" viewBox="0 0 24 24">
    <g fill="none" stroke="currentColor" stroke-linecap="round" stroke-linejoin="round" stroke-width="2">
      <path
        d="M8 6v6m7-6v6M2 12h19.6M18 18h3s.5-1.7.8-2.8c.1-.4.2-.8.2-1.2s-.1-.8-.2-1.2l-1.4-5C20.1 6.8 19.1 6 18 6H4a2 2 0 0 0-2 2v10h3" />
      <circle cx="7" cy="18" r="2" />
      <path d="M9 18h5" />
      <circle cx="16" cy="18" r="2" />
    </g>
  </symbol>
  <symbol id="lucide-car-front" viewBox="0 0 24 24">
    <g fill="none" stroke="currentColor" stroke-linecap="round" stroke-linejoin="round" stroke-width="2">
      <path
        d="m21 8l-2 2l-1.5-3.7A2 2 0 0 0 15.646 5H8.4a2 2 0 0 0-1.903 1.257L5 10L3 8m4 6h.01M17 14h.01" />
      <rect width="18" height="8" x="3" y="10" rx="2" />
      <path d="M5 18v2m14-2v2" />
    </g>
  </symbol>
  <symbol id="lucide-ban" viewBox="0 0 24 24">
    <g fill="none" stroke="currentColor" stroke-linecap="round" stroke-linejoin="round" stroke-width="2">
      <circle cx="12" cy="12" r="10" />
      <path d="m4.9 4.9l14.2 14.2" />
    </g>
  </symbol>
  <symbol id="question-mark" viewBox="0 0 18 18">
    <path fill="currentColor" d="M9.294 3c1.142 0 2.058.313 2.75.938.702.615 1.053 1.465 1.053 2.552 0 1.075-.346 1.898-1.037 2.469-.692.56-1.608.84-2.75.84l-.065 1.267H7.22l-.082-2.799h.74c.955 0 1.69-.126 2.207-.378.515-.253.773-.713.773-1.383 0-.483-.143-.867-.428-1.152-.274-.285-.653-.428-1.136-.428-.504 0-.9.137-1.185.411-.274.275-.411.653-.411 1.136H5.525c-.011-.67.132-1.267.428-1.794.296-.527.73-.938 1.3-1.235C7.835 3.148 8.515 3 9.294 3Zm-1.07 12c-.417 0-.762-.126-1.037-.379a1.32 1.32 0 0 1-.395-.97c0-.385.132-.703.395-.956.275-.263.62-.395 1.037-.395.406 0 .741.132 1.005.395.263.253.395.571.395.955s-.132.708-.395.971c-.264.253-.599.379-1.005.379Z"/>
  </symbol>
</svg>
